<?xml version="1.0" encoding="UTF-8" standalone="no"?>
<svg
   version="1.1"
   id="Layer_1"
   x="0px"
   y="0px"
   viewBox="0 0 125 125"
   xml:space="preserve"
   sodipodi:docname="lightning-icon.svg"
   width="125"
   height="125"
   inkscape:version="1.3.2 (091e20e, 2023-11-25, custom)"
   xmlns:inkscape="http://www.inkscape.org/namespaces/inkscape"
   xmlns:sodipodi="http://sodipodi.sourceforge.net/DTD/sodipodi-0.dtd"
   xmlns="http://www.w3.org/2000/svg"
   xmlns:svg="http://www.w3.org/2000/svg"><defs
     id="defs2" /><sodipodi:namedview
     id="namedview2"
     pagecolor="#ffffff"
     bordercolor="#999999"
     borderopacity="1"
     inkscape:showpageshadow="0"
     inkscape:pageopacity="0"
     inkscape:pagecheckerboard="0"
     inkscape:deskcolor="#d1d1d1"
     inkscape:zoom="4.6611044"
     inkscape:cx="16.197878"
     inkscape:cy="65.864219"
     inkscape:window-width="1920"
     inkscape:window-height="995"
     inkscape:window-x="-9"
     inkscape:window-y="-9"
     inkscape:window-maximized="1"
     inkscape:current-layer="Layer_1" /><style
     type="text/css"
     id="style1">.st0{fill:#383838;} .st1{fill-rule:evenodd;clip-rule:evenodd;fill:#FCDB33;} .st2{fill-rule:evenodd;clip-rule:evenodd;fill:#FFFF00;}</style><g
     id="g2"
     transform="translate(27.810513,1.0622664)"><path
       class="st0"
       d="M 21.34,0.41 65.26,0 c 0.81,-0.04 1.64,0.18 2.37,0.66 1.81,1.21 2.3,3.67 1.08,5.48 L 45.77,40.38 h 19.45 v 0.01 c 0.88,0 1.77,0.29 2.51,0.9 1.68,1.39 1.93,3.87 0.54,5.56 L 7,121.44 c -1.06,1.29 -2.87,1.81 -4.51,1.16 -2.03,-0.8 -3.02,-3.1 -2.21,-5.13 L 21.32,64.5 5.55,64.35 C 5.1,64.38 4.65,64.34 4.19,64.21 2.09,63.61 0.87,61.42 1.47,59.32 L 17.57,3.28 h 0.01 c 0.46,-1.64 1.96,-2.85 3.76,-2.87 z"
       id="path1" /><polygon
       class="st1"
       points="5.27,60.4 27.11,60.61 3.95,118.93 65.22,44.34 38.35,44.34 65.43,3.95 21.37,4.36 "
       id="polygon1" /><polygon
       class="st2"
       points="6.23,60.09 27.24,60.57 3.95,118.93 35.21,55.03 16.58,51.85 33.9,4.52 21.66,4.75 "
       id="polygon2" /></g></svg>
