<?xml version="1.0" encoding="utf-8"?>
<!-- Generator: Adobe Illustrator 23.0.1, SVG Export Plug-In . SVG Version: 6.00 Build 0)  -->
<svg version="1.1" id="Layer_1" xmlns="http://www.w3.org/2000/svg" xmlns:xlink="http://www.w3.org/1999/xlink" x="0px" y="0px"
	 viewBox="0 0 300 300" style="enable-background:new 0 0 300 300;" xml:space="preserve">
<style type="text/css">
	.st0{fill-rule:evenodd;clip-rule:evenodd;}
	.st1{fill-rule:evenodd;clip-rule:evenodd;fill:#2B85BB;}
	.st2{fill-rule:evenodd;clip-rule:evenodd;fill:#FFFFFF;}
	.st3{fill-rule:evenodd;clip-rule:evenodd;fill:#FF3600;}
	.st4{fill-rule:evenodd;clip-rule:evenodd;fill:#E33000;}
	.st5{fill-rule:evenodd;clip-rule:evenodd;fill:#FFFF11;}
	.st6{fill-rule:evenodd;clip-rule:evenodd;fill:#2E2D27;}
	.st7{fill-rule:evenodd;clip-rule:evenodd;fill:#FFB515;}
	.st8{fill-rule:evenodd;clip-rule:evenodd;fill:#D1CA00;}
	.st9{fill-rule:evenodd;clip-rule:evenodd;fill:#C2C2C2;}
	.st10{fill-rule:evenodd;clip-rule:evenodd;fill:#919090;}
	.st11{fill-rule:evenodd;clip-rule:evenodd;fill:#9E4116;}
	.st12{fill-rule:evenodd;clip-rule:evenodd;fill:#95A9C9;}
	.st13{fill-rule:evenodd;clip-rule:evenodd;fill:#BDC9DD;}
	.st14{fill-rule:evenodd;clip-rule:evenodd;fill:#FB6A4F;}
	.st15{fill-rule:evenodd;clip-rule:evenodd;fill:#8DADCB;}
	.st16{fill-rule:evenodd;clip-rule:evenodd;fill:#FFFF7C;}
	.st17{fill-rule:evenodd;clip-rule:evenodd;fill:#E0E0E0;}
</style>
<g id="Layer_3">
	<g>
		<path class="st0" d="M259.66,124.81l4.46,2.29c2.88,1.67,5.51,3.69,7.85,6.05c1.83,1.91,3.42,4.03,4.79,6.32
			c1.37,2.39,2.47,4.87,3.31,7.48c0.81,2.55,1.77,5,2.93,7.4l1.94,4.41c1.02,2.93,1.67,5.94,1.91,9.01l0.32,6.7
			c0,2.29-0.27,4.49-0.78,6.56c-0.62,2.77-1.51,5.43-2.61,7.99c-1,2.29-2.26,4.47-3.85,6.51l-4.47,5.25l-2.93,2.85l-4.01,2.88
			c-1.45,0.78-3.17,1.53-5.19,2.31c-1.99,0.73-4.6,1.21-7.83,1.45l-6.59,0.4h-1.26c-3.28,0.24-6.51,0.19-9.71-0.21
			c-3.23-0.4-6.13-1.61-8.74-3.63l-1.1-0.83l-0.24-0.11l-73.67-2.31c-0.4,0.21-0.73,0.67-0.94,1.35l-0.91,2.04l-1.32,2.18
			l-2.45,2.99l-4.01,3.9l-5.16,3.44c-2.04,1.05-3.85,1.8-5.43,2.23l-4.33,1.02l-1.43,0.32c-4.64,1.03-8.69,1.66-13.45,1.86h-1.72
			l-2.04-0.14c-4.33-0.47-7.68-1.36-11.62-3.12l-1.34-0.59l-2.82-1.45c-0.99-0.67-2.29-1.7-3.87-3.01L88,213.47
			c-1.69-2.02-3.23-4.17-4.6-6.46c-2.37-4.09-4.2-8.42-5.49-13.02l-0.51-2.04l-0.32-1.35l-10.52-2.99l-0.83,4.92l-0.24,1.21
			l-0.22,0.75l-0.3,1.08l-1.1,2.88l-1.86,2.64l-1.59,1.4c-1.02,0.73-2.12,1.32-3.31,1.77l-1.72,0.59l-8.37,0.94
			c-6.05,0.45-12.32,1.2-18.26-0.43l-1.26-0.59c-0.78-0.38-1.43-0.91-1.99-1.64l-1.48-2.12l-1.59-3.39l-0.83-2.55l-0.75-2.53
			l-1.61-6.83l-0.19-1.1c-0.67-3.82-1.18-7.8-1.53-11.94c-0.62-7.4-0.32-14.82,0.91-22.27c-2.23-4.63-3.77-9.39-4.6-14.28l-0.7-5.06
			c-0.48-4.47-0.43-8.88,0.19-13.26l0.89-8.45l0.7-8.98c0.24-3.04,0.86-5.86,1.86-8.5c0.83-2.21,1.94-4.2,3.25-5.94l1.78-2.04
			l7.8-0.43c6.94,0.62,13.64,1.96,20.09,4.01l2.88,0.46l5.57,0.24l5.3,0.32l3.77,0.13l1.53-0.24l9.36-4.36
			c3.28-1.48,6.64-2.72,10.09-3.71c3.63-1.21,7.32-2.29,11.06-3.17l16.03-1.67l18.88,1.29l11.62,1.96l11.57,2.5
			c6.05,1.43,11.97,3.15,17.81,5.11c2.29,0.73,4.41,1.64,6.32,2.8l1.59,1.34c3.23,3.15,6.02,6.64,8.42,10.52l5.24,8.04l7.67,11.7
			l5.41,0.32l8.04-0.27l5.94-0.24l11.16-0.32l9.52,0.56l7.58,1.29C254.66,122.74,257.19,123.66,259.66,124.81"/>
	</g>
	<path class="st0" d="M247.16,168.47l1.45-2.56c0.43-1.16,0.65-2.21,0.65-3.2l6.56-1.78c-0.62,5.35-3.15,9.71-7.53,13.07
		C248.26,171.08,247.88,169.25,247.16,168.47"/>
	<path class="st1" d="M155.11,105.21c-0.51,0.13-0.94,0.32-1.29,0.56l-1.35-1.96l0.19-0.13l2.12,0.27L155.11,105.21"/>
	<path class="st1" d="M159.77,105.15c-0.51,0-0.91,0.19-1.21,0.57l-0.13-0.05l0.46-1.16l3.55,0.7l-1.32,0.7
		C160.76,105.39,160.33,105.15,159.77,105.15"/>
	<path class="st0" d="M158.15,106.74c0,0.43,0.16,0.78,0.51,1.08c0.3,0.3,0.67,0.46,1.1,0.46h0.13l0.11,1.08
		c0,1.02-0.35,1.91-1.08,2.64c-0.78,0.75-1.67,1.13-2.69,1.13c-1.05,0-1.96-0.38-2.74-1.13c-0.73-0.73-1.08-1.61-1.08-2.64
		c0-1.05,0.35-1.94,1.08-2.61c0.78-0.78,1.69-1.16,2.74-1.16c0.73,0,1.43,0.22,2.04,0.65L158.15,106.74"/>
	<path class="st2" d="M158.93,107.57l-0.32-0.83c0-0.35,0.11-0.62,0.32-0.83c0.24-0.24,0.54-0.38,0.83-0.38
		c0.3,0,0.57,0.13,0.83,0.38l0.3,0.83l-0.3,0.83l-0.83,0.32L158.93,107.57"/>
	<polyline class="st1" points="156.94,105.15 157.02,104.24 158.47,104.51 158.1,105.48 156.94,105.15 	"/>
	<polyline class="st1" points="156.24,105.07 155.54,105.15 155.22,104 156.62,104.18 156.56,105.07 156.24,105.07 	"/>
	<polyline class="st1" points="153.44,106.04 152.85,106.61 151.08,105.21 152.15,104.05 153.44,106.04 	"/>
	<polyline class="st1" points="152.61,106.93 152.15,107.76 150.19,107.12 150.89,105.58 152.61,106.93 	"/>
	<polyline class="st1" points="151.91,109.16 149.87,109.16 149.87,108.97 150.06,107.49 152.05,108.14 151.91,109.16 	"/>
	<path class="st1" d="M152.34,111.26l-1.78,0.59c-0.35-0.67-0.56-1.43-0.65-2.23l1.99-0.08
		C151.94,110.18,152.1,110.75,152.34,111.26"/>
	<polyline class="st1" points="153.31,112.5 151.59,113.38 150.76,112.23 152.56,111.66 153.31,112.5 	"/>
	<path class="st1" d="M156.24,113.63c1.37,0,2.5-0.54,3.39-1.64l2.29,1.45c-1.35,1.48-3.07,2.23-5.17,2.23
		c-1.86,0-3.47-0.65-4.84-1.96l1.72-0.97C154.44,113.33,155.3,113.63,156.24,113.63"/>
	<polyline class="st1" points="159.9,111.66 160.38,110.51 163.15,111.58 162.19,113.11 159.9,111.66 	"/>
	<polyline class="st1" points="163.34,111.2 160.46,110.13 160.6,109.35 160.52,109.16 163.72,109.16 163.34,111.2 	"/>
	<polyline class="st1" points="163.72,108.73 160.52,108.78 160.38,108.14 160.89,107.76 163.53,107.39 163.72,108.73 	"/>
	<polyline class="st1" points="163.4,106.98 161.22,107.3 161.35,106.74 161.3,106.28 162.7,105.53 163.4,106.98 	"/>
	<path class="st3" d="M183.19,94.8c0.97,0.59,2.85,2.93,5.68,7.02l8.18,12.4l-21.33-6.78c-11.22-3.2-20.44-4.87-27.65-5.03
		c-0.54-3.42-1.24-5.84-2.1-7.29l1.21,7.16c-10.68-2.91-20.93-3.71-30.77-2.42c-7.56,1.02-14.31,3.12-20.23,6.32
		c0.22-2.55,0.57-5.22,1.02-7.93l1.59-8.47c0.65-2.72,1.4-4.49,2.23-5.3c1.75-1.61,5.97-2.5,12.64-2.69
		c7.45-0.16,16.73,0.62,27.84,2.37c10.22,1.61,18.91,3.31,26.04,5.11C174.99,91.17,180.21,93.02,183.19,94.8"/>
	<polyline class="st1" points="122.03,100.42 123.24,100.36 123.51,102.79 122.48,103.11 121.27,100.74 122.03,100.42 	"/>
	<path class="st2" d="M128.67,105.34c-0.35,0.35-0.75,0.51-1.21,0.51s-0.86-0.16-1.21-0.51c-0.35-0.35-0.51-0.75-0.51-1.21
		s0.16-0.86,0.51-1.16c0.35-0.38,0.75-0.57,1.21-0.57c0.46,0,0.86,0.19,1.21,0.57c0.35,0.3,0.51,0.7,0.51,1.16
		C129.18,104.59,129.02,104.99,128.67,105.34"/>
	<path class="st0" d="M125.47,103.49l-0.11,0.65c0,0.59,0.19,1.1,0.56,1.53c0.46,0.38,0.97,0.57,1.53,0.57l0.65-0.05l0.19,1.08
		c0,1.16-0.38,2.1-1.16,2.88c-0.78,0.75-1.69,1.13-2.8,1.13c-1.1,0-2.04-0.38-2.82-1.13c-0.75-0.81-1.13-1.78-1.13-2.88
		c0-1.05,0.38-1.99,1.13-2.8c0.78-0.78,1.72-1.16,2.82-1.16L125.47,103.49"/>
	<polyline class="st1" points="127.14,100.36 126.3,102.41 125.74,102.97 124.91,102.79 125.79,100.36 127.14,100.36 	"/>
	<polyline class="st1" points="125.36,100.36 124.53,102.79 124.34,102.7 123.88,102.79 123.7,100.36 125.36,100.36 	"/>
	<polyline class="st1" points="121.46,103.81 119.66,101.95 120.95,100.98 122.11,103.3 121.46,103.81 	"/>
	<path class="st1" d="M121.14,104.13c-0.35,0.3-0.62,0.67-0.83,1.13l-2.23-1.08l1.29-1.91L121.14,104.13"/>
	<path class="st1" d="M119.88,106.61l-2.37-0.38c0.08-0.59,0.22-1.16,0.43-1.67l2.18,1.1L119.88,106.61"/>
	<polyline class="st1" points="119.88,107.25 119.98,108.41 117.62,108.65 117.43,107.06 117.51,106.61 119.88,106.98 
		119.88,107.25 	"/>
	<polyline class="st1" points="120.57,109.67 118.45,110.56 117.75,109.03 120.12,108.78 120.57,109.67 	"/>
	<polyline class="st1" points="121.33,110.64 119.66,112.17 118.64,110.88 120.76,110.05 121.33,110.64 	"/>
	<path class="st1" d="M124.34,111.77c0.89,0,1.69-0.24,2.47-0.7l1.61-1.96l3.04,1.35c-0.67,1.16-1.59,2.07-2.74,2.74
		c-1.18,0.67-2.45,1.02-3.82,1.02c-1.86,0-3.47-0.57-4.84-1.72l1.59-1.61C122.43,111.47,123.32,111.77,124.34,111.77"/>
	<polyline class="st1" points="128.54,108.73 128.81,107.76 132.3,107.9 131.68,110.05 128.54,108.73 	"/>
	<polyline class="st1" points="132.3,107.44 128.81,107.39 128.81,107.25 128.67,106.09 132.19,105.58 132.38,107.06 132.3,107.44 	
		"/>
	<path class="st1" d="M132.06,105.21l-3.07,0.46c0.38-0.43,0.56-0.94,0.56-1.53v-0.19l1.8-0.46L132.06,105.21"/>
	<polyline class="st1" points="128.94,102.65 129.94,101.76 131.09,103.11 129.5,103.54 128.94,102.65 	"/>
	<path class="st1" d="M127.65,100.36c0.67,0.24,1.34,0.62,1.99,1.13l-1.02,0.91l-1.16-0.4l-0.65,0.13l0.78-1.78H127.65"/>
	<path class="st2" d="M163.4,105.39c5.54,1.16,12.21,2.9,19.99,5.3l14.17,4.28l3.69,5.49l-31.53-2.99l-49.55-2.55
		c-4.38-0.08-10.09,0-17.11,0.24l-7.4-0.32c-0.22-0.19-0.27-1.05-0.13-2.55l0.59-5.08c6.94-3.79,15.04-6.03,24.26-6.64
		c-1.1,0.73-1.99,1.64-2.64,2.8c-0.62,1.16-0.94,2.39-0.94,3.71c0,2.18,0.78,4.01,2.34,5.54c1.64,1.53,3.55,2.31,5.76,2.31
		c2.26,0,4.17-0.78,5.76-2.31c1.56-1.53,2.34-3.36,2.34-5.54c0-1.37-0.35-2.64-1.02-3.85c-0.67-1.16-1.59-2.07-2.74-2.8
		c6.21,0.24,12.35,1.24,18.4,2.93l4.09,0.27c-0.81,0.67-1.43,1.48-1.86,2.42c-0.43,0.94-0.65,1.91-0.65,2.93
		c0,2.04,0.73,3.79,2.18,5.25c1.48,1.4,3.28,2.1,5.35,2.1c2.1,0,3.9-0.7,5.38-2.1c1.48-1.45,2.23-3.2,2.23-5.25
		C164.36,107.73,164.04,106.55,163.4,105.39"/>
	<polyline class="st4" points="201.51,122.45 201.05,121.86 202.34,121.99 202.53,122.45 201.51,122.45 	"/>
	<polyline class="st4" points="194.87,121.99 193.71,121.24 197.61,121.61 197.88,122.07 194.87,121.99 	"/>
	<polyline class="st4" points="192.31,121.86 192.37,121.99 189.57,122.07 189.51,122.07 187.98,121.75 186.77,121.24 
		184.59,120.65 182.09,120.08 187.71,120.59 188.55,121.24 189.43,121.61 192.07,121.61 192.31,121.86 	"/>
	<path class="st4" d="M181.71,122.69l-2.1,0.4l0.32-0.51l-0.14-0.4l-1.29-0.7l1.53,0.13C180.18,121.96,180.75,122.31,181.71,122.69"
		/>
	<path class="st5" d="M167.35,120.59l3.63-0.27l5.38,2.37l0.24-0.05l-0.11-0.32l-4.6-2.04l2.61-0.13c3.09,1.32,4.76,2.1,4.98,2.31
		v0.05l-0.56,0.65l-7.48-0.57v-0.08L167.35,120.59"/>
	<path class="st4" d="M224.56,125.06l-0.32-0.32c-0.67-0.81-2.77-1.53-6.27-2.15h3.39c2.12,0.38,3.55,0.97,4.22,1.78
		c0.3,0.35,0.4,0.73,0.38,1.16v0.19l0.19,0.05c1.69,0.78,2.5,1.53,2.37,2.31c-0.13,0.67-0.59,1.26-1.43,1.72
		c-3.68,2.18-12.59,2.53-26.68,1.08c-13.31-1.4-23.89-3.5-31.71-6.32v-0.05l-0.05,0.05c-0.46,0-0.97,0.21-1.48,0.65
		c-0.46,0.38-0.86,0.83-1.16,1.34l-4.09,0.43c-0.83-0.73-2.64-1.91-5.41-3.58l-5.76-2.93l-0.05-0.05l-6.13,0.56l-3.12-2.47
		l4.09-1.29l30.13,2.23l-0.51,0.51l-0.51-0.19v-0.05h-0.08l-8.8,0.56l4.33,2.1l-0.51-0.05l-6.05-0.7c0.38-0.35,0.59-0.75,0.65-1.21
		c0.03-0.35-0.08-0.62-0.32-0.83c-1.08-0.73-3.87-1.18-8.37-1.4l-12,0.38l-0.46,0.05l2.04,1.53h0.05l8.31-0.51
		c3.66-0.03,5.73,0.16,6.24,0.59l0.27,0.43v0.08l-0.7,0.7l-2.31-1.35h-0.11l-4.03,0.56l0.56,0.32l3.66,1.91l6,3.47l0.13,0.11
		l0.11-0.19l1.91-1.4l0.32-0.14l-2.61-1.91l9.01,1.4l9.9,2.04l2.48-0.19l13.91-0.97c8.18-0.35,16.81-0.35,25.93-0.05L224.56,125.06"
		/>
	<path class="st3" d="M261.9,134.18c-0.19,0.83-1.96,2.42-5.35,4.79c-3.58,2.5-6.35,3.98-8.31,4.41L235.22,143l-20.87-1.72
		l-18.13-0.56l-12.45-0.83l-9.01-2.69l-11.81-4.09l-10.79-3.2l-7.13-2.29c-0.89-0.43-2.12-1.18-3.66-2.23l-4.52-3.12
		c-4.28-2.85-8.28-4.84-12.08-5.94l18.91,0.83c-1.48,0.38-2.45,0.73-2.88,1.08l-0.27,0.14l0.27,0.24c0.59,0.65,1.75,1.61,3.5,2.88
		l0.13,0.13l0.13-0.05l6.05-0.59c0.99,0.3,2.93,1.32,5.81,3.07l5.24,3.39l0.13,0.13l0.11-0.08l2.04-0.24l2.23-0.13h0.13l0.13-0.19
		c0.22-0.46,0.57-0.89,1.02-1.29c0.38-0.35,0.75-0.54,1.16-0.56c7.99,2.88,18.61,5.03,31.85,6.46c14.07,1.43,23.05,1.02,26.92-1.21
		c0.94-0.65,1.48-1.35,1.61-2.12v-0.24c0-0.89-0.83-1.75-2.5-2.56v-0.05c0-0.48-0.16-0.91-0.51-1.29c-0.51-0.59-1.37-1.1-2.61-1.53
		l10.27-0.13c4.6,0.62,8.63,1.4,12.13,2.37c5.25,1.43,9.44,3.28,12.64,5.57C260.87,132.08,262.03,133.37,261.9,134.18"/>
	<path class="st5" d="M223.46,124.6c-13.85-0.38-26.95,0-39.24,1.1l-2.37,0.19l-10.87-2.23l-8.8-1.35h-0.65l3.2,2.37l-1.67,1.26
		c-1.99-1.37-4.98-3.04-8.93-5.03l2.69-0.38l2.42,1.32l0.14-0.05c0.54-0.21,0.86-0.56,0.94-1.02c0.03-0.35-0.08-0.65-0.32-0.89
		c-0.62-0.51-2.85-0.73-6.7-0.65l-8.1,0.51l-1.16-0.89l11.57-0.32c4.33,0.24,7.02,0.73,8.04,1.4l0.11,0.46
		c0,0.43-0.24,0.78-0.75,1.02l-0.78,0.32c-0.29,0.13-0.48,0.27-0.62,0.43l1.53-0.19l6.37,0.65l7.02,0.89l5.86-0.65l0.51-0.19
		l-0.51-0.19l-1.86-0.83l1.61-0.11l0.19-0.13l-0.19-0.13l-3.25-0.19l-1.91-0.32l-1.35-0.56c0.3-0.35,0.7-0.57,1.26-0.65l4.41,0.38
		l1.4,0.78l1.8,0.32c1.26,0.19,1.96,0.4,2.1,0.62l0.05,0.19l-1.02,0.65l-0.11,0.19l0.24,0.14c0.67-0.14,1.1-0.4,1.26-0.83v-0.19
		l2.37,0.65h0.08l2.61,0.05c0.38-0.03,0.59-0.13,0.65-0.32l-0.08-0.51l-0.56-0.43l-2.61-0.08c-0.3-0.03-0.65-0.21-1.02-0.51
		l4.65,0.51l0.75,0.7l0.97,0.51h3.25l0.19-0.24l-0.19-0.51l2.37,0.19l0.83,1.02h1.53l0.32-0.05l-0.4-0.7l2.31,0.19l10.41,0.32
		C219.45,123.17,222.09,123.85,223.46,124.6"/>
	<path class="st3" d="M262.65,134.45c0.21-1.24-1.05-2.88-3.77-4.92c-3.23-2.39-7.42-4.3-12.56-5.73l-5.68-1.29
		c4.63,0.19,8.42,0.67,11.35,1.48c6.64,1.83,12.29,5.03,16.97,9.58c4.98,4.81,8.31,10.68,9.98,17.62
		c2.02,8.55,2.04,17.83,0.05,27.81c-0.81,4.28-1.91,7.99-3.34,11.19c-1.35,3.2-2.77,5.41-4.28,6.64
		c-4.55,3.66-13.83,5.81-27.89,6.43c-7.53,0.35-26.33,0.24-56.43-0.32l-34.78-1.72c-11.11-1.05-17.86-2.66-20.31-4.79
		c-2.07-1.75-3.87-4.79-5.41-9.17c-1.1-3.2-2.34-8.01-3.66-14.44l-3.63-17.24c-1.61-6.89-3.39-12.78-5.3-17.67
		c-1.75-4.55-4.03-8.18-6.89-10.84c-2.61-2.47-5.08-3.66-7.48-3.52c-3.68,0.13-7.1,3.25-10.19,9.39c-3.15,6.21-4.76,13.1-4.79,20.68
		c-1.37,1.96-2.58,4.06-3.66,6.32c-1.96-3.87-4.57-10.87-7.85-21.01c-3.01-9.33-4.95-16.11-5.81-20.36l-0.19-0.7l-0.32,0.65
		l-1.4,2.99l-0.89,2.5l-1.4-0.13l-3.39-0.19c-1.67-3.58-3.95-7.45-6.89-11.67c-3.31-4.68-6.16-7.91-8.55-9.66l-0.13-0.05l-0.13,0.05
		c-1.83,0.46-3.58,1.26-5.22,2.37c-1.45,0.94-2.64,1.99-3.58,3.2v-0.27c0-2.45-0.4-4.47-1.21-6l10.14-0.32l11.35,1.1
		c7.13-8.04,15.63-14.15,25.55-18.32c8.63-3.58,18.75-5.92,30.37-6.97c8.39-0.78,21.38,0.62,39,4.14
		c7.37,1.45,13.91,3.01,19.61,4.65c5.84,1.69,9.6,3.17,11.3,4.41c2.07,1.48,5.41,5.65,10.01,12.51l11.89,17.75h-0.89l-10.73-16.22
		c-4.12-6.27-6.78-9.74-7.99-10.46c-3.15-1.86-8.34-3.82-15.63-5.86c-7.83-2.12-16.57-3.95-26.23-5.43
		c-10.09-1.59-18.34-2.45-24.72-2.61l-10.52,0.81c-2.91,0.62-5,1.48-6.32,2.64c-0.99,0.81-1.86,2.64-2.64,5.49
		c-0.56,2.04-1.16,5.03-1.77,8.98c-1.67,11.08-2.02,17.03-1.02,17.83c0.73,0.62,3.28,0.89,7.72,0.75
		c8.55-0.24,14.47-0.35,17.75-0.32l0.94,0.08c4.38,0.89,9.04,2.9,13.93,6.05l5.22,3.58l4.17,2.56l7.21,2.42
		c5.14,1.45,8.8,2.53,10.92,3.25l11.81,4.03c4.22,1.43,7.24,2.31,9.06,2.66l12.56,0.89l18.26,0.59l20.87,1.67
		c7.07,0.54,11.54,0.62,13.4,0.24c2.18-0.51,5.06-2.04,8.63-4.65C260.69,137.08,262.49,135.39,262.65,134.45"/>
	<path class="st6" d="M230.56,205.75l19.39-0.7c5.54-0.46,10.11-1.24,13.72-2.31c-1.53,1.48-3.66,2.88-6.43,4.17
		c-2.45,1.16-4.71,1.96-6.83,2.42l-11.24-0.32C235.38,208.41,232.52,207.34,230.56,205.75"/>
	<path class="st0" d="M22.91,159.65c0.62-4.12,1.69-6.27,3.17-6.43c1.45-0.13,2.93,1.72,4.41,5.54c1.53,3.9,2.58,8.72,3.2,14.42
		c0.62,5.76,0.62,10.71,0,14.88c-0.65,4.09-1.69,6.19-3.15,6.32c-1.48,0.19-2.99-1.69-4.47-5.6c-1.53-3.93-2.58-8.74-3.17-14.44
		C22.29,168.63,22.29,163.74,22.91,159.65"/>
	<path class="st6" d="M23.85,141.52c-2.21,1.64-3.71,5.65-4.52,12.08c-0.73,5.73-0.78,12.43-0.13,20.04
		c0.59,7.53,1.69,14.09,3.31,19.72c1.75,6.11,3.74,9.74,5.94,10.92l3.71,0.51c2.64-0.56,4.71-3.77,6.19-9.63
		c1.4-5.35,1.8-10.57,1.21-15.65l-0.89,0.08h-0.13c-0.81,0.03-1.53-0.35-2.18-1.16c-0.59-0.81-0.94-1.78-1.02-2.93
		c-0.03-0.94,0.11-1.77,0.46-2.5c0.35-0.75,0.78-1.29,1.35-1.59l-1.86-0.75c-0.67-2.61-1.45-6.35-2.29-11.24l-2.23-13.61
		c-1.1-1.96-2.37-3.28-3.77-4.01c-1.21-0.59-2.23-0.7-3.07-0.32L23.85,141.52"/>
	<path class="st3" d="M24.95,161.5c0.38-3.66,1.13-5.57,2.29-5.73c0.78-0.05,1.59,0.7,2.42,2.23c1.53,3.87,2.66,8.96,3.34,15.25
		c0.46,4.38,0.56,8.37,0.3,11.94c-0.19,3.47-0.7,5.94-1.51,7.4l-0.27,0.05c-1.16,0.13-2.31-1.56-3.52-5.03
		c-1.21-3.52-2.12-7.83-2.74-12.91C24.66,169.63,24.55,165.22,24.95,161.5"/>
	<path class="st3" d="M24.55,174.79c0.62,5.06,1.56,9.36,2.88,12.88c1.32,3.63,2.64,5.49,3.9,5.57l-0.83,0.51
		c-1.32,0.13-2.64-1.72-3.95-5.57c-1.32-3.79-2.29-8.42-2.88-13.91c-0.59-5.49-0.65-10.22-0.13-14.23c0.46-4.01,1.34-6.08,2.64-6.27
		c0.75-0.03,1.51,0.59,2.29,1.91c-0.46-0.38-0.91-0.54-1.35-0.51c-1.32,0.13-2.23,2.1-2.74,5.94
		C23.9,164.97,23.96,169.52,24.55,174.79"/>
	<path class="st6" d="M26.16,140.71l3.63-0.65l0.65,3.63C29.2,142,27.78,141.01,26.16,140.71"/>
	<path class="st0" d="M22.21,119.33c1.4-0.08,2.77,1.83,4.14,5.73c1.02,3.09,2.1,7.77,3.25,14.04l-3.52,0.51
		c-1.26,0.35-2.23,0.73-2.88,1.16c-1.53,1.1-2.77,3.07-3.77,5.86c-1.75-5.51-2.26-11.46-1.59-17.81c0.35-2.82,0.86-5.06,1.59-6.75
		C20.22,120.27,21.13,119.36,22.21,119.33"/>
	<path class="st7" d="M48.38,122.5c2.02,0.14,3.31,0.62,3.87,1.48c0.65,0.97,0.78,3.04,0.4,6.24c-0.99,2.34-1.88,4.84-2.69,7.48
		c-0.89,2.82-1.51,5.3-1.86,7.48c-1.18,5.19-1.83,10.84-1.91,16.97v3.07c-0.08,0.73-0.27,1.24-0.51,1.53
		c-0.3,0.38-0.78,0.56-1.4,0.56l-3.52-0.51c-1.53-0.38-2.5-0.78-2.93-1.21c-0.43-0.43-0.78-1.69-1.08-3.82l-0.65-6.21l3.58,0.59
		l1.08-0.19l0.65-1.21l0.38-5.57v-0.24l-0.32-0.08c-2.18-0.16-3.58-0.65-4.2-1.45c-1.21-1.67-1.53-4.84-1.02-9.52
		c0.81-7.29,3.12-12.08,6.94-14.42C44.51,122.66,46.26,122.34,48.38,122.5"/>
	<path class="st0" d="M36.63,150.4c-0.38-0.46-0.65-1.96-0.78-4.47l0.91,1.8c0.67,0.97,2.15,1.56,4.38,1.78l-0.19,2.8
		C39.05,152.22,37.59,151.6,36.63,150.4"/>
	<path class="st7" d="M65.73,124.87l-3.2,8.55l-0.7,1.16c-0.24,0.24-0.65,0.43-1.21,0.51l-3.5-0.4l-0.32-0.05l-0.08,0.32l-0.94,2.99
		l-0.65,2.04l2.74,0.46c0.73,0.08,1.24,0.67,1.53,1.78c0.24,0.94,0.35,2.18,0.32,3.66c-0.13,3.23-0.59,7.72-1.4,13.48
		c-0.94,6.46-1.78,9.9-2.5,10.33l-3.5-0.32c-2.02-0.43-3.2-0.86-3.58-1.26c-0.51-0.65-0.94-1.99-1.29-4.03
		c-0.35-2.12-0.46-4.33-0.32-6.56l4.6,0.89c0.73,0.08,1.26-0.11,1.61-0.57l0.56-1.48l0.32-2.8l0.24-2.82v-0.32l-0.32-0.05
		l-3.55-0.32L49,149.64c-0.56-0.51-0.32-2.96,0.7-7.29c1.08-4.47,2.42-8.69,4.03-12.64c1.26-2.99,2.34-4.71,3.2-5.16l6.05,0.13
		L65.73,124.87"/>
	<path class="st5" d="M79.58,163.12l-6.46-6.46l-6.43-7.02l-0.51-0.59v0.78c0,1.96,0.13,4.71,0.38,8.23
		c0.35,4.17,0.7,7.32,1.08,9.44l-4.65-3.95l-3.9-3.95l1.02-8.61l0.38-5.11l0.08-0.65c0-1.45-0.19-2.69-0.59-3.71
		c-0.46-1.16-1.13-1.8-1.96-1.96l-1.99-0.32v-0.05l4.09,0.11c0.89-0.16,1.61-1.51,2.12-4.01l1.08-1.61l3.58-9.58l-1.53-0.05
		l1.45-4.09c1.02,4.68,3.01,11.57,6,20.63c3.25,9.82,5.84,16.57,7.75,20.23L79.58,163.12"/>
	<path class="st0" d="M53.46,154.29c-3.39-0.21-5.35-0.59-5.92-1.16l0.51-3.58l0.32,0.51c0.4,0.4,2.21,0.73,5.41,0.97L53.46,154.29"
		/>
	<path class="st5" d="M51.82,157.74l-4.6-0.89l0.24-3.01c0.94,0.56,2.93,0.94,5.94,1.16l-0.13,1.21l-0.43,1.29L51.82,157.74"/>
	<path class="st8" d="M47.09,168.61l-0.38,1.26c-0.3,0.46-0.73,0.7-1.29,0.7h-0.56c2.82,2.02,6.46,5,10.92,9.01l-1.34-3.63
		l-1.48-3.52c-2.45-0.38-3.95-0.86-4.52-1.48c-0.43-0.4-0.73-0.97-0.89-1.64l-0.4-2.37L47.09,168.61"/>
	<polyline class="st0" points="56.42,138.16 57.31,135.41 60.81,135.66 61.51,135.6 60.81,137.65 59.97,138.72 58.52,138.72 
		56.29,138.53 56.42,138.16 	"/>
	<path class="st3" d="M79.21,164.01l-5.89-5.94l-6.43-7.02l0.56,8.79c0.35,3.93,0.7,6.81,1.08,8.64l0.13,0.65l-0.56-0.4l-4.41-3.5
		l-4.79-4.41c-1.1,7.32-2.1,11.16-2.93,11.57l-1.16,0.24l-1.26-0.13l1.53,3.58l1.53,4.28l0.24,0.91l-0.7-0.65
		c-4.84-4.38-8.9-7.72-12.19-9.95c-2.72-0.3-4.44-0.67-5.11-1.1l-0.97-1.16l-0.83-1.91l-1.45-0.7l0.83,3.71l5.62,2.29
		c2.93,1.26,4.73,2.15,5.41,2.64c0.86,0.67,1.86,1.96,3.01,3.82c1.1,1.83,1.88,2.9,2.29,3.2c0.86,0.62,3.98,1.61,9.39,2.99
		l14.55,3.9c-0.35-2.26-0.51-4.6-0.51-7.02C76.19,175.17,77.19,169.41,79.21,164.01"/>
	<path class="st9" d="M40.58,172.8l5.16,2.5l-1.91,0.05l-0.13,0.08h-0.05c-0.67,0.08-1.26,0.43-1.72,1.08
		c-0.51,0.67-0.81,1.48-0.83,2.37h-1.08l0.94-1.53l0.27-2.18C41.17,174.33,40.96,173.53,40.58,172.8"/>
	<path class="st10" d="M40.58,175.17c0.03,1.02-0.13,1.88-0.51,2.61c-0.38,0.73-0.89,1.13-1.53,1.16c-0.59,0.03-1.13-0.3-1.59-0.97
		c-0.51-0.67-0.81-1.51-0.83-2.53c-0.03-0.94,0.11-1.78,0.43-2.5c0.35-0.67,0.78-1.1,1.35-1.26l1.67,0.75
		C40.15,173.1,40.5,174.01,40.58,175.17"/>
	<path class="st10" d="M45.56,176.84c0.46,0.59,0.73,1.35,0.78,2.23c0.03,0.89-0.16,1.69-0.59,2.37c-0.38,0.62-0.89,0.97-1.53,1.02
		c-0.59,0.03-1.13-0.24-1.59-0.83c-0.46-0.65-0.73-1.43-0.78-2.31c-0.03-0.89,0.13-1.67,0.51-2.29c0.43-0.67,0.94-1.05,1.53-1.08
		C44.53,175.95,45.1,176.24,45.56,176.84"/>
	<path class="st9" d="M45.42,175.95l1.1-0.08l2.29,2.93l1.99,3.2l-4.92,0.32c0.81-0.81,1.16-1.88,1.08-3.26
		C46.87,177.67,46.36,176.62,45.42,175.95"/>
	<path class="st6" d="M41.09,179.5c0.08,1.02,0.46,1.91,1.08,2.64c0.62,0.67,1.32,1,2.12,0.94l0.43-0.05l6.51-0.46l0.4,0.4
		c0.59,0.4,2.26,1.05,5.03,1.91l8.61,2.37c-0.03,3.82-1.02,7.42-2.93,10.84c-1.75,3.09-3.52,4.92-5.35,5.43l-8.88,0.89l-13.91,0.51
		c2.34-1.59,4.09-5.14,5.3-10.65c1.1-5.16,1.37-10.09,0.83-14.77L41.09,179.5"/>
	<path class="st6" d="M110.92,146.06l-1.59,5.22l2.23,0.51l0.32-1.26l1.34,1.86l3.17,1.16l-1.59-3.01l1.21-0.38l1.67,7.02
		c-2.77-1.26-5.62-1.88-8.55-1.8c-6,0.27-11,3.12-15.01,8.55c-4.01,5.46-5.86,11.89-5.62,19.34c0.35,7.51,2.72,13.8,7.16,18.91
		c4.47,5.06,9.71,7.48,15.71,7.26c3.66-0.16,7.05-1.34,10.14-3.55c3.04-2.23,5.46-5.16,7.29-8.82l1.4,1.4l0.51,0.4l-1.16,2.23
		l3.25,4.57l1.21-2.93l-0.81-1.45l0.3-0.65l1.1,1.67l0.83-1.29l7.53,1.61c-3.12,6.29-7.32,11.3-12.59,14.98
		c-5.41,3.79-11.27,5.68-17.62,5.68c-4.71,0-9.25-1.08-13.58-3.25c-4.22-2.13-7.93-5.11-11.19-8.98
		c-6.89-8.2-10.33-18.13-10.33-29.75c0-11.59,3.42-21.47,10.27-29.61c3.23-3.93,6.94-6.94,11.16-9.01c4.33-2.21,8.9-3.28,13.66-3.25
		c0.81,2.07,1.61,4.57,2.42,7.48c-1.32-0.65-2.66-0.91-4.09-0.83L110.92,146.06"/>
	<path class="st0" d="M105.89,127.99c2.56,2.48,4.68,5.84,6.37,10.09c-5.14,0.05-10.03,1.32-14.69,3.77
		c-4.49,2.45-8.42,5.84-11.73,10.17c0.16-5.97,1.61-11.84,4.33-17.62c2.93-6.21,6.08-9.41,9.44-9.58
		C101.5,124.73,103.6,125.78,105.89,127.99"/>
	<path class="st2" d="M115.38,147.65l0.51,1.99l-0.75,0.24l-0.78,0.13l-0.38,0.05l1.29,2.45l-1.72-0.65l-1.86-2.61l-0.51,1.91
		l-1.16-0.27l1.29-4.33l2.29,0.32C114.33,147.11,114.93,147.36,115.38,147.65"/>
	<path class="st2" d="M115.38,147.65l-0.19-0.75c-1.32-0.65-2.66-0.91-4.09-0.83h-0.19l-1.59,5.22l2.23,0.51l0.32-1.26l1.34,1.86
		l3.17,1.16l-1.59-3.01l1.21-0.38l-0.13-0.51l-0.75,0.24l-0.78,0.13l-0.38,0.05l1.29,2.45l-1.72-0.65l-1.86-2.61l-0.51,1.91
		l-1.16-0.27l1.29-4.33l2.29,0.32C114.33,147.11,114.93,147.36,115.38,147.65"/>
	<path class="st3" d="M118.02,159.92c-1.61-0.51-3.2-0.73-4.73-0.65c-4.76,0.21-8.74,2.5-11.94,6.89c-3.2,4.38-4.65,9.6-4.38,15.65
		c0.24,6,2.15,11.06,5.68,15.2c3.52,4.11,7.67,6.11,12.37,5.92c2.56-0.14,4.9-0.91,7.02-2.34c2.12-1.45,3.85-3.44,5.11-5.94
		c-1.59,3.58-3.71,6.43-6.37,8.61c-2.85,2.26-5.94,3.44-9.25,3.58c-5.25,0.22-9.82-2.02-13.75-6.7c-3.9-4.65-6.03-10.36-6.32-17.11
		c-0.24-6.75,1.37-12.64,4.87-17.62c3.58-4.98,7.96-7.58,13.21-7.8C112.34,157.47,115.17,158.25,118.02,159.92"/>
	<path class="st0" d="M123.37,193.67l0.32-0.75l0.56-0.89l0.51-0.83l0.46-0.65l1.45,3.25l-1.32,2.37l-1.29-1.21
		C123.61,194.4,123.37,193.97,123.37,193.67"/>
	<path class="st11" d="M110.68,173.82c1.4-2.21,3.25-3.47,5.54-3.77c1.37-0.22,2.72,0,4.09,0.65c1.37,7.18,2.61,12.64,3.71,16.33
		c-1.32,1.8-2.99,2.82-4.98,3.07c-2.34,0.35-4.49-0.35-6.4-2.1c-1.91-1.75-3.04-3.98-3.44-6.75
		C108.82,178.48,109.3,176,110.68,173.82"/>
	<path class="st11" d="M118.45,160.86l1.72,9.01l-4.01-0.46c-2.61,0.35-4.65,1.69-6.19,4.03c-1.53,2.34-2.12,4.98-1.72,7.91
		c0.4,2.93,1.69,5.33,3.82,7.16c2.07,1.83,4.41,2.58,7.02,2.23c2.02-0.3,3.77-1.21,5.24-2.8l0.7,1.96l-0.65,0.78l-0.56,0.94
		l-0.7,1.1c-0.27,0.38-0.38,0.65-0.32,0.83c0,0.46,0.24,1,0.7,1.59l1.59,1.45c-1.26,1.69-2.77,3.04-4.47,4.03
		c-1.75,1-3.58,1.51-5.54,1.59c-4.52,0.19-8.47-1.72-11.84-5.73c-3.36-4.01-5.14-8.9-5.35-14.69c-0.24-5.84,1.13-10.87,4.14-15.14
		c3.04-4.22,6.81-6.43,11.3-6.62C115.14,160,116.84,160.27,118.45,160.86"/>
	<path class="st3" d="M117.94,158.38l0.08,0.51c-2.72-1.45-5.57-2.13-8.55-1.99c-5.54,0.21-10.14,2.88-13.8,7.99
		c-3.66,5.06-5.33,11.11-5.03,18.13c0.24,7.02,2.39,12.91,6.43,17.67c4.09,4.81,8.9,7.13,14.44,6.91c3.44-0.13,6.62-1.29,9.49-3.52
		c2.82-2.07,5.08-4.89,6.78-8.42l0.32,0.51c-1.75,3.66-4.09,6.56-6.97,8.74c-3.04,2.26-6.29,3.44-9.82,3.58
		c-5.7,0.24-10.68-2.1-14.96-7.02c-4.25-4.92-6.54-11-6.83-18.21c-0.3-7.18,1.48-13.45,5.3-18.75c3.87-5.3,8.66-8.04,14.36-8.23
		C112.13,156.15,115.06,156.85,117.94,158.38"/>
	<polyline class="st2" points="132.57,201.29 133.46,202.82 132.71,204.59 130.2,201.02 131.17,199.11 133.22,200.18 132.57,201.29 
			"/>
	<polyline class="st2" points="134.86,200.83 134.62,201.29 134.1,200.51 134.86,200.83 	"/>
	<polyline class="st2" points="130.72,198.87 129.56,201.1 132.81,205.67 134.02,202.74 133.22,201.29 133.51,200.64 134.62,202.31 
		135.45,201.02 134.86,200.83 134.62,201.29 134.1,200.51 133.22,200.18 132.57,201.29 133.46,202.82 132.71,204.59 130.2,201.02 
		131.17,199.11 130.72,198.87 	"/>
	<path class="st6" d="M152.34,203.71c-1.1,2.61-3.01,5.38-5.78,8.37c-2.69,2.88-5.08,4.81-7.15,5.81c-1.67,0.75-3.79,1.51-6.4,2.29
		l-8.1,2.1c4.03-1.78,7.75-4.36,11.16-7.72c3.31-3.31,6.08-7.21,8.31-11.67L152.34,203.71"/>
	<path class="st3" d="M67.07,89.96c-4.6,3.28-8.66,6.99-12.18,11.11c-4.01-0.81-8.96-1.24-14.87-1.29
		c-7.53-0.03-13.02,0.78-16.49,2.42c-3.31,1.53-5.92,4.33-7.77,8.37c0.08-4.98,0.67-9.87,1.78-14.74c1.37-5.65,3.07-9.17,5.11-10.6
		c4.22-0.62,9.55-0.27,16.03,1.1l10.65,2.61l7.72,0.51L67.07,89.96"/>
	<path class="st5" d="M52.15,112.42c2.66,3.93,4.87,7.67,6.56,11.24l-2.23,0.19c-0.86,0.46-1.83,1.88-2.93,4.28v-2.56
		c-0.05-0.83-0.22-1.48-0.51-1.91c-0.73-1.05-2.26-1.69-4.6-1.91c-2.39-0.22-4.28,0.11-5.68,0.94c-4.52,2.82-7.02,8.74-7.53,17.81
		v0.59c-0.08,1.59-0.11,3.2-0.08,4.84c0.08,2.69,0.4,4.33,0.91,4.92c1.05,1.32,2.66,2.02,4.84,2.1l-0.19,1.72l-0.32,0.78l-0.56,0.05
		l-4.03-0.65l-0.38-0.05v0.38l0.32,3.66c0.22,2.64,0.54,4.6,0.94,5.86l0.27,1.16l-1.48-0.73c-2.12-13.48-3.87-23.46-5.22-29.94
		c-2.39-11.57-5.06-17.3-7.99-17.21c-1.4,0.08-2.58,1.05-3.58,2.93c-1.02,1.83-1.69,4.22-2.04,7.21c-0.81,6.72,0,13.34,2.42,19.85
		l-0.19,0.7c-3.82-10.17-5.14-19.53-3.95-28.08c1.16-8.31,4.33-13.83,9.52-16.6c1.99-1.1,4.92-1.88,8.8-2.29
		c1.05,1.91,1.51,4.25,1.35,7.02v0.7l0.46-0.51c2.77-2.93,5.76-4.84,8.98-5.7C46.31,104.91,49.03,107.98,52.15,112.42"/>
	<path class="st6" d="M282.07,154.67c4.76,12.13,4.73,23.48-0.13,34.03c-2.04,4.52-4.84,8.42-8.42,11.67
		c-3.36,3.15-7.02,5.41-10.97,6.78l-6.46,1.53c2.07-0.83,4.03-1.94,5.86-3.25l3.85-3.39c2.8-1.05,5.17-2.37,7.13-3.95
		c3.15-2.5,5.76-8.18,7.8-16.97C282.93,171.67,283.39,162.85,282.07,154.67"/>
	<path class="st0" d="M90.23,87.78c-0.97-1.1-3.36-1.48-7.21-1.08c-2.99,0.35-6.13,1.02-9.5,2.04c-1.45,2.34-3.34,6.16-5.62,11.49
		c-2.26,5.19-3.58,8.66-3.95,10.41c2.64,1.78,6.27,3.25,10.89,4.41c4.3,0.97,7.32,1.24,9.06,0.81c0.86-0.22,1.75-1.7,2.69-4.47
		l2.37-9.2l1.67-8.98C90.99,90.31,90.85,88.5,90.23,87.78"/>
	<path class="st12" d="M89.48,88.56c0.38,0.46,0.38,2.07,0,4.79l-1.67,8.55l-2.1,8.66c-0.81,2.69-1.59,4.12-2.31,4.28l-8.28-0.89
		c-4.33-1.02-7.72-2.26-10.14-3.68c0.38-1.43,1.64-4.63,3.82-9.66c2.29-5.46,4.06-9.17,5.3-11.16c2.26-0.73,5.11-1.24,8.55-1.59
		C86.52,87.51,88.81,87.75,89.48,88.56"/>
	<path class="st0" d="M64.38,94.47c-3.82,3.12-6.24,5.89-7.26,8.31c0.3,0.83,1.02,2.04,2.23,3.63c1.16,1.48,2.1,2.55,2.88,3.2
		c0.97-2.5,2.61-6.19,4.9-11.05c2.45-5.06,4.03-8.04,4.79-8.93C70.28,90.2,67.75,91.81,64.38,94.47"/>
	<path class="st12" d="M66.11,98.64c-2.07,4.25-3.47,7.4-4.2,9.44l-2.12-2.69l-1.72-2.74c0.65-1.32,2.23-3.15,4.73-5.54
		c2.56-2.39,4.98-4.33,7.26-5.81C69.44,92.11,68.12,94.56,66.11,98.64"/>
	<path class="st0" d="M163.72,136.17l-1.59-0.56l-2.12-0.14c-13.75-4.01-21.2-5.22-22.41-3.63c-0.51,0.67,0.19,2.58,2.04,5.67
		c1.91,3.23,3.6,5.22,5.06,5.94c1.96,0.97,7.91,1.83,17.86,2.56c9.76,0.73,14.98,0.78,15.66,0.19c0.46-0.4,0.62-1.21,0.43-2.45
		c-0.22-1.21-0.67-2.04-1.34-2.47c-0.46-0.3-2.69-1.13-6.7-2.5l0.08-0.94l-0.27-0.83l-3.07-0.27l-3.31-0.19L163.72,136.17"/>
	<path class="st7" d="M148.28,133.15c0.94,0.99,1.91,2.74,2.93,5.24c0.97,2.39,1.51,4.28,1.59,5.68c-4.12-0.51-6.64-1-7.53-1.45
		c-1.45-0.73-3.07-2.55-4.84-5.49c-1.69-2.82-2.39-4.47-2.04-4.92l2.99-0.19L148.28,133.15"/>
	<path class="st0" d="M43.65,139.23l1.4-5.35v-0.08c-0.16-0.83-0.62-1.29-1.4-1.35c-0.51,0-1.02,0.27-1.53,0.78
		c-0.59,0.56-1.02,1.35-1.29,2.37c-0.4,1.48-0.35,2.53,0.22,3.12c0.51,0.51,1.32,0.67,2.42,0.51H43.65"/>
	<path class="st0" d="M42.76,135.66l-1.35,0.19l0.05-0.05c0.22-0.86,0.54-1.53,0.97-2.04c0.43-0.43,0.83-0.65,1.21-0.65l0.7,0.78
		l-0.51,2.15L42.76,135.66"/>
	<path class="st5" d="M43.14,138.59c-0.81,0.08-1.34-0.03-1.59-0.32c-0.3-0.3-0.4-0.81-0.32-1.53c0.35-0.35,0.83-0.48,1.45-0.43
		c0.46,0.08,0.78,0.24,0.97,0.43L43.14,138.59"/>
	<path class="st7" d="M167.11,138.59l0.05,0.14c0.94,0.16,1.72,0.4,2.37,0.7c0.73,0.35,1.1,0.73,1.16,1.16
		c0,0.73-0.54,1.21-1.61,1.45l-5.22,0.32v-0.7l0.51-0.7h0.38l2.04-0.05l1.08-0.32l0.13-0.27l-0.13-0.32l-0.89-0.24l-1.8-0.05h-0.43
		v-0.4c0.03-0.75-0.08-1.45-0.38-2.1l5.73,0.32l0.08,0.94l-3.01-0.05L167.11,138.59"/>
	<polyline class="st9" points="165.17,140.12 167.62,140.31 164.74,140.58 164.55,140.58 164.69,140.12 165.17,140.12 	"/>
	<path class="st7" d="M163.96,137.65l0.27,1.59c-0.03,1.1-0.43,1.94-1.21,2.48c-0.94,0.73-2.96,0.97-6.08,0.73l0.32-1.34
		c2.04,0.13,3.31-0.08,3.77-0.65l0.19-0.75l-0.05-0.22h-0.27l-3.17-0.3l-0.38-0.65l-0.08-0.97c0.05-0.59,0.24-1,0.59-1.21l2.74-0.38
		c1.4,0.03,2.31,0.24,2.74,0.65L163.96,137.65"/>
	<path class="st9" d="M170.47,139.42l6.32,2.29c0.51,0.35,0.89,1.02,1.1,2.04c0.24,1.02,0.19,1.67-0.19,1.94
		c-0.3,0.22-3.23,0.16-8.74-0.19l-15.52-1.29c-0.05-1.45-0.54-3.34-1.48-5.62c-0.89-2.34-1.83-4.06-2.8-5.22l9.07,2.29l-0.65,0.19
		c-0.51,0.3-0.78,0.86-0.83,1.67c-0.08,1.02,0.14,1.72,0.65,2.1l3.25,0.46l-0.05,0.05l-3.52,0.46l-0.14-0.08l-0.05,0.13l-0.38,1.08
		l-0.13,0.97v0.27h0.24c3.36,0.35,5.62,0.08,6.72-0.78h0.05v0.7l6.19-0.32c1.16-0.38,1.69-1.02,1.61-1.96
		C171.2,140.15,170.96,139.77,170.47,139.42"/>
	<path class="st0" d="M159.68,137.65c0,0.24,0.08,0.4,0.22,0.43l0.48,0.13l0.51-0.13l0.22-0.51l-0.22-0.38l-0.51-0.05l-0.48,0.05
		C159.77,137.21,159.68,137.38,159.68,137.65"/>
	<polyline class="st9" points="159.95,137.65 160.09,137.89 160.38,137.94 160.79,137.89 160.84,137.65 160.71,137.38 
		160.38,137.32 160.09,137.38 159.95,137.65 	"/>
	<path class="st0" d="M258.27,159.97c-6.51,1.69-14.39,2.77-23.62,3.2c-8.69,0.38-17.56,0.16-26.63-0.65
		c-9.06-0.81-17.08-2.1-23.99-3.9c-7.34-1.86-12.53-4.06-15.57-6.56l2.47,0.24c-1.1-1.83-3.09-2.31-5.94-1.45
		c-2.8,0.81-4.65,2.39-5.54,4.79c1.18-1.02,2.42-1.8,3.71-2.37c0.46,3.28,1.72,6.56,3.77,9.84c1.91,3.09,4.3,5.86,7.21,8.28
		c4.28,3.5,10.89,6.35,19.85,8.55c9.01,2.26,18.05,3.25,27.06,3.01c10.03-0.3,18.13-2.15,24.26-5.51
		c7.1-3.85,10.89-9.44,11.35-16.78L258.27,159.97"/>
	<path class="st2" d="M167.54,161.58c11.4,6.37,25.96,10.09,43.68,11.08c7.4,0.43,14.31,0.3,20.74-0.43
		c6.32-0.73,11.22-1.85,14.69-3.39c0.59,0.78,0.91,2.66,0.94,5.68c-4.28,3.04-10.01,5.11-17.16,6.21
		c-6.43,0.94-13.48,1.02-21.14,0.3c-7.13-0.67-13.85-1.99-20.17-3.95c-6.24-1.96-10.95-4.22-14.15-6.83
		C172.11,167.96,169.64,165.05,167.54,161.58"/>
	<path class="st2" d="M167.16,152.2c2.42,2.56,6.89,4.84,13.39,6.89c6.05,1.83,13.23,3.25,21.6,4.28l24.32,1.4
		c8.42-0.08,15.73-0.73,21.89-1.91l-0.7,3.12l-1.29,2.18c-3.01,1.37-7.64,2.37-13.85,3.01c-6.51,0.62-13.5,0.7-21.01,0.24
		c-18.51-1.16-33.51-5.03-45-11.67c-1.16-2.34-1.94-4.65-2.34-6.91L167.16,152.2"/>
	<path class="st0" d="M277.09,148.94c0.67-0.89,0.05-2.93-1.86-6.13c-1.96-3.2-3.71-4.87-5.25-5.06c-1.18-0.13-3.71,0.83-7.58,2.88
		c-3.74,1.96-5.76,3.34-6,4.14c-0.22,0.65,0.13,1.61,1.02,2.88c0.89,1.24,1.75,2.02,2.56,2.31l2.34,0.11l3.39-0.11h7.72
		C275.45,149.83,276.66,149.51,277.09,148.94"/>
	<path class="st7" d="M276.26,148.62l-1.72,0.51c-0.51-1.53-1.48-3.36-2.88-5.43c-1.4-2.04-2.77-3.6-4.09-4.65
		c1.16-0.43,1.94-0.62,2.37-0.59c1.24,0.19,2.74,1.78,4.52,4.79C276.21,146.23,276.83,148.03,276.26,148.62"/>
	<path class="st9" d="M257.06,144.99c0.13-0.35,1.34-1.18,3.63-2.56c2.39-1.43,4.52-2.47,6.37-3.2c1.1,0.94,2.42,2.48,3.95,4.65
		l3.01,5.24l-11.57,0.19l-2.23-0.13c-0.73-0.16-1.45-0.78-2.23-1.86C257.19,146.28,256.87,145.5,257.06,144.99"/>
	<path class="st0" d="M146.61,127.1c0.3,0.43,0.86,0.73,1.72,0.89l1.91-0.24l0.38-0.59v-0.11l-0.19-0.46
		c-0.3-0.46-0.86-0.75-1.72-0.89l-1.91,0.24l-0.32,0.51C146.4,126.67,146.42,126.89,146.61,127.1"/>
	<path class="st9" d="M148.66,126.21c0.67,0.14,1.13,0.35,1.35,0.65l0.05,0.24l-0.13,0.19l-1.45,0.14c-0.67-0.08-1.16-0.3-1.43-0.65
		l-0.05-0.24l0.13-0.19L148.66,126.21"/>
	<path class="st0" d="M188.82,137.89l-0.22-0.51c-0.35-0.38-0.91-0.62-1.72-0.75c-0.83-0.14-1.48-0.03-1.91,0.32l-0.32,0.56
		l0.19,0.57c0.3,0.43,0.89,0.7,1.75,0.83l1.91-0.32l0.32-0.56V137.89"/>
	<path class="st9" d="M186.77,137.13l1.4,0.57l0.14,0.24l-0.22,0.21l-1.45,0.24c-0.67-0.08-1.16-0.3-1.4-0.65l-0.08-0.19l0.14-0.19
		L186.77,137.13"/>
	<path class="st0" d="M239.17,140.58l0.27,0.56c0.35,0.43,0.94,0.67,1.77,0.7l1.86-0.43l0.32-0.59v-0.05l-0.19-0.56
		c-0.43-0.4-1.05-0.62-1.86-0.65c-0.81-0.08-1.43,0.05-1.86,0.43L239.17,140.58"/>
	<path class="st9" d="M241.35,140.07c0.67,0.03,1.16,0.22,1.4,0.51l0.13,0.19l-0.13,0.24l-1.48,0.32c-0.73-0.08-1.21-0.24-1.45-0.51
		l-0.08-0.24l0.13-0.19C240.16,140.12,240.67,140.01,241.35,140.07"/>
	<path class="st0" d="M254.69,133.37c0.4,0.38,1.02,0.56,1.86,0.56l1.83-0.56l0.27-0.59l-0.27-0.62c-0.4-0.35-1.02-0.51-1.83-0.51
		c-0.86,0-1.48,0.19-1.86,0.57l-0.27,0.56L254.69,133.37"/>
	<path class="st9" d="M256.54,132.16c0.67,0,1.16,0.13,1.45,0.43l0.05,0.19l-0.05,0.19l-1.45,0.46c-0.67,0-1.18-0.16-1.48-0.46
		l-0.14-0.19l0.14-0.19C255.36,132.29,255.87,132.16,256.54,132.16"/>
	<path class="st0" d="M223.59,125.7c0.56,0.62,0.75,1.18,0.56,1.67c-0.3,0.75-1.67,1.32-4.14,1.72c-3.85,0.54-9.68,0.46-17.56-0.27
		l-17.73-2.47h-0.08l-3.25,0.62l0.83,0.27c4.25,1.26,10.3,2.26,18.18,2.99c8.26,0.73,14.9,0.81,19.88,0.19
		c3.31-0.38,5.19-1.24,5.59-2.61c0.27-0.83-0.05-1.64-0.94-2.42l-0.08-0.05h-0.05l-1.16,0.11l-0.19,0.08L223.59,125.7"/>
	<path class="st5" d="M224.67,126.97c0-0.38-0.19-0.78-0.56-1.21h0.56c0.62,0.46,0.91,0.97,0.91,1.53l-0.08,0.38
		c-0.38,1.24-2.13,2.02-5.22,2.37c-4.81,0.56-11.19,0.48-19.1-0.19c-7.56-0.65-13.58-1.59-18.08-2.8l1.53-0.32
		c4.87,1.05,10.79,1.88,17.81,2.47c7.88,0.73,13.74,0.83,17.62,0.27c2.66-0.4,4.14-1.05,4.49-1.99L224.67,126.97"/>
	<path class="st0" d="M102.88,167.26c-1.16,1.4-1.64,2.45-1.45,3.17c0.16,0.57,0.78,1.18,1.83,1.86c1.02,0.65,1.78,0.94,2.26,0.89
		c0.35,0,0.7-0.24,1.08-0.7l1.02-1.26l0.83-1.08l0.43-0.91c0.05-0.62-0.3-1.43-1.08-2.42c-0.78-1.02-1.48-1.53-2.1-1.53
		C104.97,165.24,104.03,165.89,102.88,167.26"/>
	<path class="st0" d="M105.7,165.86c-0.46,0-1.21,0.62-2.23,1.83c-1.02,1.24-1.51,2.1-1.43,2.56l1.53,1.48
		c0.86,0.51,1.48,0.75,1.86,0.75l0.83-0.56l0.89-1.16l1.1-1.64c0.03-0.51-0.27-1.18-0.91-1.99
		C106.72,166.29,106.16,165.86,105.7,165.86"/>
	<path class="st0" d="M113.74,160.67c-1.32,0.08-2.18,0.32-2.56,0.7c-0.4,0.48-0.35,1.48,0.13,2.96c0.51,1.53,1.02,2.42,1.59,2.66
		l1.16,0.08l1.45-0.19l1.59-0.13l0.91-0.19c0.22-0.35,0.19-1.18-0.08-2.56c-0.24-1.43-0.65-2.31-1.21-2.69
		C116.11,160.86,115.11,160.64,113.74,160.67"/>
	<path class="st0" d="M116.41,161.69c0.43,0.27,0.78,1.05,1.02,2.31c0.22,1.24,0.27,1.96,0.13,2.15l-0.75,0.13l-1.43,0.08
		l-1.26,0.19h-0.89c-0.46-0.22-0.91-1-1.34-2.37c-0.43-1.37-0.48-2.18-0.19-2.42c0.3-0.35,0.99-0.51,2.15-0.51L116.41,161.69"/>
	<path class="st0" d="M101.99,177.45l-2.69,0.27c-0.67,0.35-0.97,1.61-0.83,3.82c0.13,2.18,0.56,3.42,1.24,3.77l2.66,0.14
		c1.16-0.3,1.88-0.65,2.18-1.08l0.24-1.35l-0.11-1.86l-0.08-1.53l-0.24-1.08C103.95,178.05,103.17,177.67,101.99,177.45"/>
	<path class="st0" d="M101.85,178.1l-2.1,0.08c-0.43,0.24-0.59,1.34-0.51,3.31c0.13,1.91,0.4,3.01,0.83,3.26l2.04-0.05
		c0.97-0.22,1.59-0.48,1.86-0.83l0.19-1.1l-0.13-1.59v-1.26l-0.27-0.97C103.52,178.56,102.88,178.29,101.85,178.1"/>
	<path class="st0" d="M108.04,190.31l-0.75-0.65c-0.65-0.19-1.51,0-2.61,0.51c-1.16,0.56-1.8,1.13-1.99,1.72
		c-0.22,0.73,0.24,1.8,1.34,3.25c1.1,1.4,2.02,2.07,2.74,2.04l2.23-1.35c0.89-0.83,1.35-1.53,1.35-2.04l-0.38-1.16l-1.1-1.26
		L108.04,190.31"/>
	<path class="st0" d="M108.36,191.76l-0.75-0.97l-0.65-0.56l-2.1,0.46c-0.99,0.46-1.53,0.91-1.61,1.35
		c-0.13,0.46,0.32,1.35,1.34,2.61c0.99,1.26,1.72,1.88,2.18,1.86c0.43,0,1-0.38,1.72-1.1c0.73-0.73,1.1-1.26,1.16-1.64l-0.38-0.91
		L108.36,191.76"/>
	<path class="st0" d="M119.74,197.63c-0.05-1.16-0.24-1.88-0.59-2.23c-0.16-0.16-0.51-0.27-1.02-0.32l-1.53-0.05l-1.26-0.05
		l-0.89,0.11c-0.51,0.35-0.91,1.08-1.21,2.18c-0.3,1.1-0.3,1.91,0,2.42c0.38,0.62,1.4,0.94,3.07,1.02c1.61,0.08,2.64-0.13,3.07-0.7
		C119.71,199.62,119.82,198.84,119.74,197.63"/>
	<path class="st0" d="M119.15,197.71c-0.03-0.94-0.19-1.56-0.43-1.86l-0.89-0.27h-1.29l-1.08-0.05l-0.78,0.14
		c-0.38,0.21-0.73,0.81-1.02,1.78c-0.24,0.94-0.27,1.59-0.05,1.91c0.3,0.4,1.21,0.62,2.69,0.65l2.61-0.38
		C119.12,199.32,119.2,198.68,119.15,197.71"/>
	<path class="st2" d="M103.76,213.15l-0.05-0.13l-3.12-1.26l0.05,0.51l0.7,2.55c-0.51,0.14-0.97,0.32-1.4,0.57
		c-0.35,0.3-0.57,0.65-0.7,1.02l-0.05,0.27l0.24,0.75c0.35,0.56,1.02,1.08,2.04,1.53c1.02,0.46,2.07,0.75,3.12,0.89l0.19,0.08
		l2.5-5.43l-2.37-1.08l-0.83,1.32L103.76,213.15"/>
	<polyline class="st2" points="103.47,214.55 103.76,215.51 104.03,215.89 105.11,214.12 106.59,214.74 104.49,219.33 
		101.53,218.39 99.89,217.1 99.7,216.67 99.76,216.54 100.32,215.76 101.75,215.33 102.04,215.25 101.93,214.95 101.34,212.58 
		103.25,213.42 103.47,214.55 	"/>
	<polyline class="st2" points="115.2,213.2 112.32,213.47 111.94,214.68 110.41,214.68 110.3,213.61 107.53,214.04 107.74,220.11 
		111.56,220.25 115.2,213.2 	"/>
	<polyline class="st2" points="109.98,215.25 112.4,215.19 112.77,213.98 114.31,213.85 111.24,219.74 108.26,219.6 108.12,214.49 
		109.84,214.17 109.98,215.25 	"/>
	<polyline class="st2" points="110.17,218.64 111.56,216.27 109.84,216.08 110.17,218.64 	"/>
	<polyline class="st6" points="110.92,216.59 110.41,217.42 110.35,216.59 110.92,216.59 	"/>
	<path class="st2" d="M102.45,217.48l0.81,0.46h0.13l0.7-1.67l-0.11-0.05l-1.43-0.32c-0.4,0-0.67,0.14-0.81,0.38l0.05,0.51
		L102.45,217.48"/>
	<path class="st6" d="M103.58,216.54l-0.38,0.89c-0.57-0.21-0.91-0.48-1.08-0.83v-0.19L103.58,216.54"/>
	<path class="st2" d="M120.87,210.59l-0.38,0.19l-4.52,1.99l-0.19,0.05l-0.08,2.37l0.7-0.24v1.08l-1.21,0.38v0.19l-0.05,1.1v1.64
		l0.32-0.05c1.37-0.3,3.09-0.99,5.22-2.1l0.19-0.08L120.87,210.59"/>
	<path class="st2" d="M119.04,213.52l-0.4-0.11l-2.34,0.94v-1.16l4.09-1.78l-0.08,5.35l-4.65,1.86l0.05-1.86l2.64-0.89l0.19-0.24
		l-0.08-0.14c-0.03-0.19-0.13-0.21-0.32-0.13l-1.21,0.51v-1.21l1.99-0.75L119.04,213.52"/>
	<path class="st6" d="M118.34,215.89l-2.64,0.89l-0.56,0.19l0.05-0.57l0.51-0.24l0.7-0.13l1.72-0.65c0.19-0.08,0.3-0.05,0.32,0.13
		l0.08,0.14L118.34,215.89"/>
	<polyline class="st2" points="123.7,215.51 123.88,213.01 125.23,214.36 127.46,212.31 124.96,209.52 124.96,207.34 122.4,209.14 
		121.14,216.86 123.7,215.51 	"/>
	<polyline class="st2" points="121.84,215.89 122.86,209.44 124.45,208.36 124.45,209.71 126.68,212.26 125.23,213.66 123.37,211.8 
		123.18,215.14 121.84,215.89 	"/>
	<path class="st2" d="M127.92,208.41l-0.97,0.97l0.51,2.5l0.32-0.27l1.72-1.45c1.16-1.21,1.96-2.39,2.47-3.58v-0.19l-0.51-0.97
		l-0.56-0.97l-0.83,1.1l-1.13-2.64l-2.31,2.12L127.92,208.41"/>
	<path class="st2" d="M128.73,203.84l1.21,2.8l0.91-1.21l0.57,1.08c-0.67,1.53-1.88,3.01-3.58,4.41l-0.32-1.35l1.02-1.02l-1.26-3.39
		L128.73,203.84"/>
	<polyline class="st2" points="82.08,182.05 82.08,184.56 79.26,183.72 79.34,187.3 85.12,188.78 84.69,182.97 82.08,182.05 	"/>
	<polyline class="st2" points="84.18,183.35 84.56,188.05 79.85,186.84 79.85,184.42 82.59,185.25 82.59,182.83 84.18,183.35 	"/>
	<path class="st2" d="M79.21,176.76l-0.08,3.15l0.22,0.05c1.78,0.89,3.36,1.56,4.79,1.99L84.5,182v-3.07l-0.19-0.05l-2.12-0.7
		l-2.61-1.21L79.21,176.76"/>
	<polyline class="st2" points="83.99,179.39 83.91,181.3 79.72,179.5 79.72,177.67 83.99,179.39 	"/>
	<path class="st2" d="M80.85,168.47l-0.05,0.19c-0.43,1.18-0.67,2.45-0.75,3.82c-0.08,1.53,0.08,2.74,0.51,3.58
		c0.35,0.65,0.81,1.05,1.4,1.21l1.91-0.11l1.08-1.29l0.46-4.33v-0.13l-0.05-0.05l-1.94-1.67l-0.3-0.19l-0.08,0.38l-0.19,1.02
		l-0.24,1.78v0.21l0.11,0.05l0.7,0.46l-0.19,0.43l-0.57,0.19c-0.3-0.08-0.43-0.51-0.38-1.35l0.38-3.04l0.05-0.14l-0.11-0.13
		l-0.73-0.51l-0.81-0.38L80.85,168.47"/>
	<path class="st2" d="M84.88,171.67l-0.46,4.06l-0.81,0.91l-1.53,0.11l-1.02-0.94c-0.35-0.67-0.51-1.56-0.51-2.64
		c0-1.32,0.24-2.66,0.7-4.06l0.89,0.56c-0.3,1.53-0.46,2.58-0.46,3.2c0,0.97,0.27,1.51,0.83,1.64c0.43,0.14,0.81,0.03,1.1-0.32
		l0.38-0.81l-0.08-0.22v-0.05l-0.05-0.05l-0.75-0.51l0.3-2.18L84.88,171.67"/>
	<polyline class="st2" points="87.49,167.18 88.46,164.52 88.32,164.38 86.79,162.66 85.02,160.48 84.75,160.11 83.35,162.66 
		84.56,164.25 84.13,164.89 83.03,163.63 82.84,163.92 81.63,166.1 81.76,166.24 83.16,168.09 85.58,170.43 85.9,170.65 
		86.87,167.96 85.58,166.67 86.04,165.97 87.25,166.99 87.49,167.18 	"/>
	<path class="st2" d="M86.23,165.4l-0.19-0.19l-0.19,0.19l-0.46,0.56l-0.32,0.65l-0.05,0.14l0.05,0.19l1.16,1.21l-0.59,1.67
		c-0.75-0.56-1.88-1.8-3.36-3.77l0.89-1.53l0.89,1.21l0.19-0.19l0.46-0.59l0.43-0.7v-0.13l-1.13-1.51l0.83-1.48l2.99,3.58
		l-0.56,1.67L86.23,165.4"/>
	<polyline class="st2" points="88.84,154.29 87.06,156.47 85.26,158.95 85.26,159.08 86.66,160.86 87.44,159.78 89.35,162.66 
		91.15,160.29 89.48,157.5 90.37,156.21 89.16,153.97 88.84,154.29 	"/>
	<polyline class="st2" points="88.84,157.5 90.42,160.29 89.35,161.77 87.49,158.84 86.66,159.97 85.85,159.03 89.02,154.94 
		89.72,156.21 88.84,157.5 	"/>
	<polyline class="st2" points="89.54,153.73 92.41,156.39 92.36,158.63 95.34,155.96 95.61,149.05 92.92,151.09 92.87,153.03 
		91.44,151.74 89.54,153.73 	"/>
	<polyline class="st2" points="91.44,152.52 93.38,154.24 93.49,151.36 95.02,150.15 94.78,155.69 92.92,157.36 92.92,156.21 
		90.31,153.73 91.44,152.52 	"/>
	<polyline class="st2" points="101.15,146.44 95.99,148.81 96.55,155.05 101.53,152.76 101.42,150.72 98.87,151.79 98.79,151.36 
		101.24,150.34 101.24,148.81 98.6,149.88 98.55,149.51 101.24,148.3 101.15,146.44 	"/>
	<path class="st2" d="M100.64,147.97l-2.66,1.34l0.24,1.35l2.42-1.02l0.08,0.43c-0.86,0.4-1.69,0.75-2.5,1.1l0.24,1.4l2.45-1.02
		l0.05,0.83l-3.9,1.86l-0.51-5.11l4.09-1.86L100.64,147.97"/>
	<polyline class="st2" points="105.06,150.99 106.78,150.72 106.72,151.69 109.33,151.74 108.26,145.5 104.49,145.88 101.93,152.3 
		105,152.06 105.06,150.99 	"/>
	<polyline class="st2" points="102.77,151.74 104.87,146.39 107.74,146.12 108.69,151.18 107.29,151.18 107.34,150.07 
		104.54,150.53 104.49,151.55 102.77,151.74 	"/>
	<polyline class="st2" points="105.7,147.14 104.79,149.51 106.72,149.64 105.7,147.14 	"/>
	<polyline class="st6" points="105.38,149.13 105.7,148.24 106.08,149.18 105.38,149.13 	"/>
	<polyline class="st2" points="112.45,147.65 112.02,149.13 112.21,149.18 114.5,149.13 114.5,148.62 113.47,147.92 112.59,147.65 
		112.45,147.65 	"/>
	<polyline class="st6" points="112.53,148.86 112.77,148.11 113.47,148.35 114.12,148.81 114.17,148.94 114.17,149 112.53,148.86 	
		"/>
	<polyline class="st6" points="119.04,213.52 118.64,213.42 115.71,214.63 115.52,215.38 116.41,214.95 118.91,213.93 
		119.04,213.52 	"/>
	<path class="st2" d="M31.7,200l-0.7,0.65c-0.38-1.59-0.62-2.82-0.7-3.71l0.56-0.75l0.32,1.21l0.19-0.27l-0.32-1.26l0.46-0.89
		l1.08,3.82l-0.7,1.02l-0.24-1.16l-0.13,0.22L31.7,200"/>
	<polyline class="st2" points="29.01,198.22 28.96,199.43 28.91,201.02 28.26,201.34 28.32,202.23 29.47,201.8 30.36,201.15 
		30.17,200.26 29.61,200.59 29.74,197.71 29.01,198.22 	"/>
	<polyline class="st2" points="28.4,198.41 27.75,198.41 26.86,200.32 25.46,200.83 25.84,201.53 26.86,201.15 26.86,202.17 
		27.88,202.23 27.62,200.51 28.4,198.41 	"/>
	<polyline class="st2" points="27.24,198.14 26.08,197.25 25.57,197.84 26.08,198.35 25.84,198.73 25.38,198.41 24.95,198.92 
		25.38,199.35 25.14,199.81 24.68,199.35 25.46,200.83 26.4,199.35 27.24,198.14 	"/>
	<path class="st2" d="M23.61,189.99l-0.59,2.47l-0.81-0.24l0.3,1.02c0.35,0.08,0.56,0.22,0.7,0.43l-0.43,0.59l0.43,1.26l1.53-2.04
		l-0.3-0.89l-0.73,0.38l0.32-1.72L23.61,189.99"/>
	<path class="st2" d="M25.01,194.27c-0.59,0.62-1.05,1.4-1.4,2.34l0.32,0.91l0.38-1.02l0.38,0.51l-0.75,0.56l0.3,0.89l1.8-1.53
		l-0.51-0.94l-0.38,0.38l-0.46-0.51l0.51-0.83L25.01,194.27"/>
	<path class="st2" d="M33.1,195.15l-0.56,1.02c0.13,0.43,0.32,0.78,0.56,1.02c0.81-0.89,1.05-1.91,0.7-3.07
		c-0.24-1.02-0.65-1.59-1.21-1.67h-0.11l-0.59,1.1l-0.11,0.7l0.62,1.59l0.51-0.83l-0.43-0.94l0.11-0.14h0.13
		C33.1,194.29,33.24,194.7,33.1,195.15"/>
	<polyline class="st2" points="34.39,192.33 33.29,190.1 32.91,191.52 34.12,193.81 34.39,192.33 	"/>
	<polyline class="st2" points="34.64,187.94 33.88,186.41 33.61,188.27 34.45,189.8 34.64,187.94 	"/>
	<polyline class="st2" points="26.86,151.18 26.73,152.25 27.37,153.09 27.56,149.13 26.73,148.11 26.16,149.45 25.52,151.09 
		26.16,151.69 26.49,150.91 26.86,151.18 	"/>
	<polyline class="st6" points="26.92,149.56 26.86,150.53 26.59,150.34 26.92,149.56 	"/>
	<path class="st2" d="M28.07,154.11l0.24-0.83v1.21l0.65,1.02l-0.13-1.91c0.65,0.14,0.83-0.21,0.59-1.02l-1.16-2.42l-0.7,3.17
		L28.07,154.11"/>
	<path class="st6" d="M28.58,152.06l-0.08,0.51l0.32,0.19C28.91,152.55,28.83,152.3,28.58,152.06"/>
	<polyline class="st2" points="21.38,146.76 22.59,148.35 23.1,150.66 23.72,150.48 23.42,148.24 24.04,146.2 23.15,146.12 
		22.77,147.22 22.13,146.31 21.38,146.76 	"/>
	<polyline class="st2" points="20.17,148.81 20.46,149.45 20.92,149 22.21,151.69 22.72,150.99 21.43,148.43 21.81,147.97 
		21.24,146.9 20.41,147.79 20.17,148.81 	"/>
	<path class="st2" d="M25.06,147.92l-0.11,0.32l0.56,0.24l-0.05,1.02l-0.65-0.32l-0.08,0.32l0.73,0.38l-0.13,1.1l-1.29-0.51
		l0.4-4.17c0.67,0.27,1.24,0.65,1.64,1.1l-0.32,0.83L25.06,147.92"/>
	<polyline class="st2" points="20.03,151.42 19.71,150.99 19.52,152.12 21.24,154.75 21.43,153.92 20.68,152.52 20.86,152.01 
		21.62,153.27 21.94,152.3 20.08,149.18 19.84,150.21 20.27,150.99 20.03,151.42 	"/>
	<path class="st2" d="M20.08,154.11l-0.38,1.45l0.32,0.27v0.24h-0.27l-0.24-0.38l0.43-1.86l-0.56-0.81l-0.46,4.38
		c0.4,0.4,0.81,0.54,1.24,0.46l0.75-0.97c0.19-0.73,0.16-1.35-0.05-1.86L20.08,154.11"/>
	<polyline class="st2" points="18.82,159.97 20.6,161.37 20.68,159.35 18.93,157.93 18.82,159.97 	"/>
	<polyline class="st2" points="20.54,161.88 19.25,160.94 19.14,162.79 18.74,162.39 18.74,164.44 20.54,165.97 20.54,161.88 	"/>
	<path class="st13" d="M86.09,87.72c-0.78,4.68-2.55,7.8-5.35,9.39c-1.16,0.62-2.56,1-4.22,1.08c-1.48,0.08-2.47,0.38-2.99,0.89
		c-0.67,0.65-1.02,1.86-1.02,3.63c-0.05,2.02-0.27,3.42-0.65,4.22c-0.73,1.37-1.56,2.34-2.5,2.93c-0.81,0.46-1.99,0.75-3.58,0.83
		c1.69,0.89,3.79,1.69,6.27,2.42c1.75-0.97,2.93-2.74,3.58-5.35l0.7-2.88c0.24-0.97,0.59-1.69,1.02-2.18
		c0.73-0.75,1.53-1.21,2.42-1.4l2.74-0.83c1.48-0.73,2.8-2.21,3.95-4.47c1.16-2.29,1.91-4.95,2.31-7.96L86.09,87.72"/>
	<path class="st11" d="M167.67,189.59c-11.27-1.37-19.69-3.09-25.2-5.22c-5.19-2.02-9.87-5.94-13.99-11.81
		c-3.28-4.65-6.48-10.89-9.63-18.77l5.59,25.98c2.1,8.64,4.6,14.2,7.53,16.65c2.45,2.12,9.2,3.74,20.31,4.79l34.78,1.72
		c30.1,0.56,48.9,0.67,56.43,0.32c14.07-0.62,23.35-2.77,27.89-6.43c1.86-1.48,3.52-4.36,5.06-8.63c1.61-4.33,2.77-9.2,3.44-14.55
		c-2.34,3.36-5.22,6.27-8.69,8.69c-3.39,2.42-7.24,4.3-11.54,5.62c-4.98,1.53-12.86,2.64-23.62,3.36
		c-10.36,0.67-21.65,0.89-33.89,0.59L167.67,189.59"/>
	<path class="st8" d="M51.82,157.74c0.57,0.08,0.94-0.08,1.13-0.51c-1.99-0.62-3.85-1.34-5.6-2.18l-0.13,1.8L51.82,157.74"/>
	<path class="st11" d="M79.21,164.01l-3.12-3.15l-8.58-0.3c0.35,3.66,0.67,6.29,1.02,7.91l0.13,0.65l-0.56-0.4l-4.41-3.5l-4.79-4.41
		c-1.1,7.32-2.1,11.16-2.93,11.57l-1.16,0.24l-1.26-0.13l1.53,3.58l1.53,4.28l0.24,0.91l-0.7-0.65c-4.84-4.38-8.9-7.72-12.19-9.95
		c-2.72-0.3-4.44-0.67-5.11-1.1l-0.97-1.16l-0.83-1.91l-1.45-0.7l0.83,3.71l5.62,2.29c2.93,1.26,4.73,2.15,5.41,2.64
		c0.86,0.67,1.86,1.96,3.01,3.82c1.1,1.83,1.88,2.9,2.29,3.2c0.86,0.62,3.98,1.61,9.39,2.99l14.55,3.9
		c-0.35-2.26-0.51-4.6-0.51-7.02C76.19,175.17,77.19,169.41,79.21,164.01"/>
	<path class="st8" d="M35.28,148.11l-3.12-2.69l1.64,10.41l1.67,9.31l1.48,0.73l-0.27-1.16c-0.4-1.26-0.73-3.23-0.94-5.86
		l-0.32-3.66v-0.38l0.38,0.05l4.03,0.65l0.56-0.05l0.32-0.78l0.19-1.72c-2.18-0.08-3.79-0.78-4.84-2.1
		C35.66,150.4,35.42,149.48,35.28,148.11"/>
	<path class="st8" d="M19.06,147.97c-1.69-4.49-2.58-9.31-2.66-14.42c-0.73-1.69-1.35-3.74-1.86-6.08
		c0.13,6.81,1.56,13.88,4.33,21.2L19.06,147.97"/>
	<path class="st8" d="M66.81,160.43l-7.72-1.4v0.56l3.9,3.95l4.65,3.95C67.29,165.67,67.02,163.31,66.81,160.43"/>
	<polyline class="st8" points="77.22,160.8 79.58,163.12 80.55,160.8 80.42,160.48 77.22,160.8 	"/>
	<path class="st14" d="M103.71,117.71c-3.42-0.08-6.7,0.65-9.9,2.18c4.89-1.37,9.84-0.97,14.82,1.16
		c7.02,3.04,12.62,9.33,16.84,18.88c-1.53-9.33-5.59-15.87-12.24-19.61C110.3,118.68,107.13,117.79,103.71,117.71"/>
	<path class="st0" d="M105.19,120.13l0.24,0.19l2.69,2.18c1.32,1.1,2.15,1.99,2.55,2.61l0.32,0.4l0.19-0.46l0.7-1.86
		c1.53,2.12,3.04,4.79,4.52,7.94l0.4,0.81l0.11-0.89c0.27-1.96,0.11-4.25-0.51-6.89c-0.59-2.64-1.45-4.87-2.61-6.7l-0.13-0.19
		l-1.02,0.7l-0.94,0.75l-1.48-2.04l-0.05-0.13l-0.19,0.08l-2.45,1.53l-2.15,1.78L105.19,120.13"/>
	<path class="st15" d="M111.43,119.38l0.13,0.19l0.97-0.89l1.02-0.7c0.83,1.53,1.56,3.36,2.15,5.49c0.51,2.07,0.78,4.01,0.78,5.81
		v0.7c-1.61-3.2-3.09-5.7-4.41-7.53l-0.32-0.46l-0.19,0.51l-0.7,1.91l-2.42-2.34l-2.42-1.99l1.91-1.53l2.1-1.26L111.43,119.38"/>
	<path class="st14" d="M65.86,90.84l-8.88-0.19l-7.67-0.32l-5.35-1.34l-8.5-1.91l-8.1-0.83l-4.47,0.46c-0.86,0.67-1.8,2.5-2.82,5.43
		c-0.94,2.58-1.56,4.92-1.86,7.02c1.16-2.26,2.15-3.77,3.01-4.55c1.18-1.1,2.88-1.8,5.11-2.04c3.9-0.46,9.76-0.48,17.54-0.05
		c8.02,0.46,14.71,0.4,20.12-0.19L65.86,90.84"/>
	<path class="st16" d="M33.69,102.79c-2.02,0.16-3.9,0.51-5.7,1.08c-1.96,0.65-3.47,1.4-4.52,2.23l11.11,0.59
		C34.5,105.26,34.21,103.97,33.69,102.79"/>
	<path class="st16" d="M50.8,110.64l-3.85-4.73L41.79,104c-1.69,0.78-3.31,1.8-4.79,3.07C41.68,107.84,46.28,109.03,50.8,110.64"/>
	<path class="st14" d="M52.15,111.07l6.7,2.88c-3.42-3.07-6.75-5.46-10.03-7.21L52.15,111.07"/>
	<path class="st14" d="M36.06,106.93c1.26-1.32,2.77-2.42,4.52-3.31l-4.47-1.02l-1.67,0.11c0.43,1.08,0.7,2.42,0.78,4.03
		L36.06,106.93"/>
	<path class="st14" d="M181.34,90.33c-1.69-1.24-5.46-2.72-11.3-4.41c-5.7-1.64-12.24-3.2-19.61-4.65
		c-17.62-3.52-30.61-4.92-39-4.14c-11.62,1.05-21.73,3.39-30.31,6.97c4.92-1.29,9.9-2.39,14.87-3.34
		c5.73-1.05,10.71-1.72,14.93-1.96c7.99-0.48,19.5,0.57,34.48,3.17c15.79,2.69,28.3,5.94,37.52,9.76L181.34,90.33"/>
	<path class="st14" d="M242.18,123.85l-8.37-0.32l-6.59-0.05l14.17,2.47c6.7,1.02,12.43,2.53,17.24,4.55
		c-3.15-2.39-7.42-4.3-12.83-5.76L242.18,123.85"/>
	<path class="st14" d="M257.24,128.37c1.64,1.08,2.99,2.18,4.01,3.28l7.53,4.2c-4.44-5.27-10.52-8.85-18.26-10.73
		C253.02,126.11,255.28,127.18,257.24,128.37"/>
	<polyline class="st17" points="157.26,136.11 157.59,135.84 158.23,135.66 156.94,135.28 157.26,136.11 	"/>
	<path class="st17" d="M171.2,140.58c0.03,0.59-0.14,1.05-0.51,1.4c-0.4,0.35-1.08,0.59-2.04,0.75v2.77l5.59,0.24l-0.19-5.11
		l-3.58-1.21C170.96,139.77,171.2,140.15,171.2,140.58"/>
	<path class="st17" d="M158.29,139.93l0.13,0.7c1.18-0.03,1.91-0.21,2.18-0.51l0.05-0.05L158.29,139.93"/>
	<polyline class="st17" points="162.32,145.04 162.05,142.73 158.74,143.05 158.93,144.77 162.32,145.04 	"/>
	<polyline class="st17" points="268.03,149.32 272.74,149.27 269.67,144.16 266.23,139.56 262.78,141.22 268.03,149.32 	"/>
	<polyline class="st17" points="258.78,143.64 262.27,149.32 264.64,149.32 260.61,142.49 258.78,143.64 	"/>
</g>
</svg>
